# xmcd
#
# Track frame offsets:
#	150
#	12345
#	24345
#	36546
#	48183
#	59781
#	72096
#	82818
#	95586
#	108744
#	126636
#	140484
#	159471
#	172725
#
# Disc length: 2436 seconds
#
# Revision: 1
# Processed by: cddbd v1.4PL0 Copyright (c) Steve Scherf et al.
# Submitted via: audiograbber 1.81.02
#
DISCID=bf09820e
DTITLE=Tonico e Tinoco - Os Gigantes - Tonico and Tinoco
DYEAR=2002
DGENRE=Country
TTITLE0=Moreninha Linda
TTITLE1=Pindo D'Água
TTITLE2=Pé De Ipê
TTITLE3=Aparecida do Norte
TTITLE4=Curitibana
TTITLE5=Mourão Da Porteira
TTITLE6=Adeus Mariana
TTITLE7=Canoeiro
TTITLE8=Cana Verde
TTITLE9=Cabocla Tereza
TTITLE10=Adeus, Morena, Adeus
TTITLE11=Chitãozinho E Chororó
TTITLE12=Irmão da Estrada
TTITLE13=Ingrata Morena
EXTD=
EXTT0=
EXTT1=
EXTT2=
EXTT3=
EXTT4=
EXTT5=
EXTT6=
EXTT7=
EXTT8=
EXTT9=
EXTT10=
EXTT11=
EXTT12=
EXTT13=
PLAYORDER=
